<svg width="167" height="241" viewBox="0 0 167 241" fill="none" xmlns="http://www.w3.org/2000/svg">
<path d="M4.12938 92.4012V112.085L28.9057 128.511L53.6819 112.085V92.4012L28.9057 76.3522L4.12938 92.4012Z" fill="#FFCE56"/>
<path d="M28.9057 132.523C28.0911 132.523 27.2807 132.29 26.5787 131.825L1.80247 115.4C0.673087 114.652 0 113.412 0 112.086V92.4012C0 91.0591 0.689604 89.8072 1.8386 89.063L26.6149 73.014C28.0024 72.1163 29.809 72.1163 31.1964 73.014L55.9727 89.063C57.1217 89.8072 57.8113 91.0591 57.8113 92.4012V112.086C57.8113 113.412 57.1382 114.653 56.0088 115.401L31.2326 131.826C30.5306 132.29 29.7202 132.523 28.9057 132.523ZM8.25876 109.966L28.9057 123.654L49.5526 109.966V94.5477L28.9057 81.1729L8.25876 94.5477V109.966Z" fill="#FDB720"/>
<path d="M28.9057 56.2911V75.9751L53.6819 92.4012L78.4582 75.9751V56.2911L53.6819 40.2422L28.9057 56.2911Z" fill="#FECE3F"/>
<path d="M53.6819 96.4122C52.8674 96.4122 52.057 96.1795 51.355 95.7151L26.5787 79.2901C25.4494 78.5418 24.7763 77.302 24.7763 75.976V56.29C24.7763 54.9479 25.4659 53.6961 26.6149 52.9518L51.3912 36.9029C52.7786 36.0052 54.5852 36.0052 55.9727 36.9029L80.749 52.9518C81.898 53.6961 82.5876 54.9479 82.5876 56.29V75.975C82.5876 77.301 81.9145 78.5418 80.7851 79.2901L56.0088 95.7151C55.3069 96.1795 54.4965 96.4122 53.6819 96.4122ZM33.035 73.8555L53.6819 87.5432L74.3289 73.8555V58.4375L53.6819 45.0628L33.035 58.4375V73.8555Z" fill="#FDB720"/>
<path d="M53.6819 92.4012V112.085L78.4582 128.511L103.234 112.085V92.4012L78.4582 76.3522L53.6819 92.4012Z" fill="#FECE3F"/>
<path d="M78.4582 132.523C77.6437 132.523 76.8333 132.29 76.1313 131.825L51.355 115.4C50.2256 114.652 49.5526 113.412 49.5526 112.086V92.4012C49.5526 91.0591 50.2422 89.8072 51.3912 89.063L76.1674 73.014C77.5549 72.1163 79.3615 72.1163 80.749 73.014L105.525 89.063C106.674 89.8072 107.364 91.0591 107.364 92.4012V112.086C107.364 113.412 106.691 114.653 105.561 115.401L80.7851 131.826C80.0831 132.29 79.2727 132.523 78.4582 132.523ZM57.8113 109.966L78.4582 123.654L99.1051 109.966V94.5477L78.4582 81.1729L57.8113 94.5477V109.966Z" fill="#FDB720"/>
<path d="M78.4582 56.2911V75.9751L103.234 92.4012L128.011 75.9751V56.2911L103.234 40.2422L78.4582 56.2911Z" fill="#FFCE56"/>
<path d="M103.234 96.4122C102.42 96.4122 101.61 96.1795 100.908 95.7151L76.1313 79.2901C75.0019 78.5418 74.3288 77.302 74.3288 75.976V56.29C74.3288 54.9479 75.0184 53.6961 76.1674 52.9518L100.944 36.9029C102.331 36.0052 104.138 36.0052 105.525 36.9029L130.302 52.9518C131.451 53.6961 132.14 54.9479 132.14 56.29V75.975C132.14 77.301 131.467 78.5418 130.338 79.2901L105.561 95.7151C104.859 96.1795 104.049 96.4122 103.234 96.4122ZM82.5876 73.8555L103.234 87.5432L123.881 73.8555V58.4375L103.234 45.0628L82.5876 58.4375V73.8555Z" fill="#FDB720"/>
<path d="M103.234 92.4011V112.085L128.011 128.511L152.787 112.085V92.4011L128.011 76.3522L103.234 92.4011Z" fill="#FECE3F"/>
<path d="M128.011 132.523C127.196 132.523 126.386 132.29 125.684 131.825L100.908 115.4C99.7782 114.652 99.1051 113.412 99.1051 112.085V92.4002C99.1051 91.0581 99.7947 89.8063 100.944 89.062L125.72 73.013C127.107 72.1153 128.914 72.1153 130.302 73.013L155.078 89.062C156.227 89.8063 156.916 91.0581 156.916 92.4002V112.085C156.916 113.411 156.243 114.652 155.114 115.4L130.338 131.825C129.636 132.29 128.825 132.523 128.011 132.523ZM107.364 109.966L128.011 123.654L148.658 109.966V94.5477L128.011 81.1729L107.364 94.5477V109.966Z" fill="#FDB720"/>
<path d="M128.011 56.2911V75.9751L152.787 92.4012L177.563 75.9751V56.2911L152.787 40.2422L128.011 56.2911Z" fill="#FECE3F"/>
<path d="M152.787 96.4122C151.973 96.4122 151.162 96.1795 150.46 95.7151L125.684 79.2901C124.554 78.5418 123.881 77.302 123.881 75.976V56.29C123.881 54.9479 124.571 53.6961 125.72 52.9518L150.496 36.9029C151.884 36.0052 153.69 36.0052 155.078 36.9029L179.854 52.9518C181.003 53.6961 181.693 54.9479 181.693 56.29V75.975C181.693 77.301 181.02 78.5418 179.89 79.2901L155.114 95.7151C154.412 96.1795 153.602 96.4122 152.787 96.4122ZM132.14 73.8555L152.787 87.5432L173.434 73.8555V58.4375L152.787 45.0628L132.14 58.4375V73.8555Z" fill="#FDB720"/>
<path d="M4.12938 164.621V184.305L28.9057 200.731L53.6819 184.305V164.621L28.9057 148.572L4.12938 164.621Z" fill="#FFCE56"/>
<path d="M28.9057 204.743C28.0911 204.743 27.2807 204.51 26.5787 204.046L1.80247 187.621C0.673087 186.872 0 185.632 0 184.306V164.621C0 163.279 0.689604 162.028 1.8386 161.283L26.6149 145.234C28.0024 144.337 29.809 144.337 31.1964 145.234L55.9727 161.283C57.1217 162.028 57.8113 163.279 57.8113 164.621V184.306C57.8113 185.632 57.1382 186.873 56.0088 187.621L31.2326 204.047C30.5306 204.51 29.7202 204.743 28.9057 204.743ZM8.25876 182.186L28.9057 195.874L49.5526 182.186V166.768L28.9057 153.393L8.25876 166.768V182.186Z" fill="#FDB720"/>
<path d="M53.6819 164.621V184.305L78.4582 200.731L103.234 184.305V164.621L78.4582 148.572L53.6819 164.621Z" fill="#FECE3F"/>
<path d="M78.4582 204.743C77.6437 204.743 76.8333 204.51 76.1313 204.046L51.355 187.621C50.2256 186.872 49.5526 185.632 49.5526 184.306V164.621C49.5526 163.279 50.2422 162.028 51.3912 161.283L76.1674 145.234C77.5549 144.337 79.3615 144.337 80.749 145.234L105.525 161.283C106.674 162.028 107.364 163.279 107.364 164.621V184.306C107.364 185.632 106.691 186.873 105.561 187.621L80.7851 204.047C80.0831 204.51 79.2727 204.743 78.4582 204.743ZM57.8113 182.186L78.4582 195.874L99.1051 182.186V166.768L78.4582 153.393L57.8113 166.768V182.186Z" fill="#FDB720"/>
<path d="M78.4582 128.511V148.195L103.234 164.621L128.011 148.195V128.511L103.234 112.462L78.4582 128.511Z" fill="#FFCE56"/>
<path d="M103.234 168.633C102.42 168.633 101.61 168.4 100.908 167.936L76.1313 151.51C75.0019 150.762 74.3289 149.522 74.3289 148.195V128.51C74.3289 127.168 75.0185 125.916 76.1675 125.172L100.944 109.123C102.331 108.225 104.138 108.225 105.525 109.123L130.302 125.172C131.451 125.916 132.14 127.168 132.14 128.51V148.195C132.14 149.521 131.467 150.762 130.338 151.51L105.561 167.936C104.859 168.4 104.049 168.633 103.234 168.633ZM82.5876 146.076L103.234 159.764L123.881 146.076V130.658L103.234 117.283L82.5876 130.658V146.076Z" fill="#FDB720"/>
<path d="M103.234 164.621V184.305L128.011 200.731L152.787 184.305V164.621L128.011 148.572L103.234 164.621Z" fill="#FFCE56"/>
<path d="M128.011 204.743C127.196 204.743 126.386 204.51 125.684 204.046L100.908 187.621C99.7782 186.872 99.1051 185.633 99.1051 184.305V164.62C99.1051 163.278 99.7947 162.027 100.944 161.282L125.72 145.233C127.107 144.336 128.914 144.336 130.302 145.233L155.078 161.282C156.227 162.027 156.916 163.278 156.916 164.62V184.305C156.916 185.632 156.243 186.872 155.114 187.621L130.338 204.046C129.636 204.51 128.825 204.743 128.011 204.743ZM107.364 182.186L128.011 195.874L148.658 182.186V166.768L128.011 153.393L107.364 166.768V182.186Z" fill="#FDB720"/>
<path d="M78.4582 200.732V220.416L103.234 236.842L128.011 220.416V200.732L103.234 184.683L78.4582 200.732Z" fill="#FFCE56"/>
<path d="M103.234 240.853C102.42 240.853 101.61 240.62 100.908 240.156L76.1313 223.731C75.0019 222.982 74.3289 221.743 74.3289 220.416V200.73C74.3289 199.388 75.0185 198.137 76.1675 197.392L100.944 181.343C102.331 180.446 104.138 180.446 105.525 181.343L130.302 197.392C131.451 198.137 132.14 199.388 132.14 200.73V220.416C132.14 221.742 131.467 222.982 130.338 223.731L105.561 240.156C104.859 240.62 104.049 240.853 103.234 240.853ZM82.5876 218.296L103.234 231.984L123.881 218.296V202.878L103.234 189.503L82.5876 202.878V218.296Z" fill="#FDB720"/>
<path d="M128.011 200.732V220.416L152.787 236.842L177.563 220.416V200.732L152.787 184.683L128.011 200.732Z" fill="#FECE3F"/>
<path d="M152.787 240.853C151.973 240.853 151.162 240.62 150.46 240.156L125.684 223.731C124.554 222.982 123.881 221.743 123.881 220.416V200.73C123.881 199.388 124.571 198.137 125.72 197.392L150.496 181.343C151.884 180.446 153.69 180.446 155.078 181.343L179.854 197.392C181.003 198.137 181.693 199.388 181.693 200.73V220.416C181.693 221.742 181.02 222.982 179.89 223.731L155.114 240.156C154.412 240.62 153.602 240.853 152.787 240.853ZM132.14 218.296L152.787 231.984L173.434 218.296V202.878L152.787 189.503L132.14 202.878V218.296Z" fill="#FDB720"/>
<path d="M128.011 128.511V148.195L152.787 164.621L177.563 148.195V128.511L152.787 112.462L128.011 128.511Z" fill="#FFCE56"/>
<path d="M152.787 168.633C151.973 168.633 151.162 168.4 150.46 167.936L125.684 151.51C124.554 150.762 123.881 149.522 123.881 148.195V128.51C123.881 127.168 124.571 125.916 125.72 125.172L150.496 109.123C151.884 108.225 153.69 108.225 155.078 109.123L179.854 125.172C181.003 125.916 181.693 127.168 181.693 128.51V148.195C181.693 149.521 181.02 150.762 179.89 151.51L155.114 167.936C154.412 168.4 153.602 168.633 152.787 168.633ZM132.14 146.076L152.787 159.764L173.434 146.076V130.658L152.787 117.283L132.14 130.658V146.076Z" fill="#FDB720"/>
<path d="M152.787 164.621V184.305L177.563 200.731L202.34 184.305V164.621L177.563 148.572L152.787 164.621Z" fill="#FECE3F"/>
<path d="M177.563 204.743C176.749 204.743 175.938 204.51 175.236 204.046L150.46 187.621C149.331 186.872 148.658 185.633 148.658 184.305V164.62C148.658 163.278 149.347 162.027 150.496 161.282L175.273 145.233C176.66 144.336 178.467 144.336 179.854 145.233L204.63 161.282C205.779 162.027 206.469 163.278 206.469 164.62V184.305C206.469 185.632 205.796 186.872 204.667 187.621L179.89 204.046C179.188 204.51 178.378 204.743 177.563 204.743ZM156.916 182.186L177.563 195.874L198.21 182.186V166.768L177.563 153.393L156.916 166.768V182.186Z" fill="#FDB720"/>
<path d="M45.4232 66.1963C47.7038 66.1963 49.5526 64.4 49.5526 62.1841C49.5526 59.9682 47.7038 58.1719 45.4232 58.1719C43.1426 58.1719 41.2938 59.9682 41.2938 62.1841C41.2938 64.4 43.1426 66.1963 45.4232 66.1963Z" fill="white"/>
<path d="M70.1995 174.527C72.4801 174.527 74.3289 172.73 74.3289 170.514C74.3289 168.298 72.4801 166.502 70.1995 166.502C67.9189 166.502 66.0701 168.298 66.0701 170.514C66.0701 172.73 67.9189 174.527 70.1995 174.527Z" fill="white"/>
<path d="M144.528 138.416C146.809 138.416 148.658 136.62 148.658 134.404C148.658 132.188 146.809 130.392 144.528 130.392C142.248 130.392 140.399 132.188 140.399 134.404C140.399 136.62 142.248 138.416 144.528 138.416Z" fill="white"/>
<path d="M169.305 174.527C171.585 174.527 173.434 172.73 173.434 170.514C173.434 168.298 171.585 166.502 169.305 166.502C167.024 166.502 165.175 168.298 165.175 170.514C165.175 172.73 167.024 174.527 169.305 174.527Z" fill="white"/>
<path d="M152.787 62.1841C155.068 62.1841 156.916 60.3877 156.916 58.1718C156.916 55.9559 155.068 54.1595 152.787 54.1595C150.506 54.1595 148.658 55.9559 148.658 58.1718C148.658 60.3877 150.506 62.1841 152.787 62.1841Z" fill="white"/>
<path d="M78.0359 56.8383V76.5224L102.812 92.9485L127.588 76.5224V56.8383L102.812 40.7893L78.0359 56.8383Z" fill="#FFCE56"/>
<path d="M102.812 96.9595C101.998 96.9595 101.187 96.7268 100.485 96.2624L75.709 79.8373C74.5796 79.089 73.9065 77.8492 73.9065 76.5232V56.8381C73.9065 55.496 74.5961 54.2442 75.7451 53.5L100.521 37.451C101.909 36.5533 103.715 36.5533 105.103 37.451L129.879 53.5C131.028 54.2442 131.718 55.496 131.718 56.8381V76.5232C131.718 77.8492 131.045 79.09 129.915 79.8383L105.139 96.2633C104.437 96.7268 103.627 96.9595 102.812 96.9595ZM82.1653 74.4027L102.812 88.0904L123.459 74.4027V58.9847L102.812 45.6099L82.1653 58.9847V74.4027Z" fill="#FDB720"/>
<path d="M102.812 20.7281V40.4121L127.588 56.8381L152.365 40.4121V20.7281L127.588 4.6792L102.812 20.7281Z" fill="#FECE3F"/>
<path d="M127.588 60.8494C126.774 60.8494 125.964 60.6167 125.262 60.1522L100.485 43.7272C99.3559 42.9789 98.6828 41.7391 98.6828 40.4131V20.7271C98.6828 19.385 99.3724 18.1332 100.521 17.389L125.298 1.34005C126.685 0.442314 128.492 0.442314 129.879 1.34005L154.656 17.389C155.805 18.1332 156.494 19.385 156.494 20.7271V40.4121C156.494 41.7381 155.821 42.9789 154.692 43.7272L129.915 60.1522C129.213 60.6167 128.403 60.8494 127.588 60.8494ZM106.942 38.2926L127.588 51.9804L148.235 38.2926V22.8747L127.588 9.49992L106.942 22.8747V38.2926Z" fill="#FDB720"/>
<path d="M127.588 56.8383V76.5224L152.365 92.9485L177.141 76.5224V56.8383L152.365 40.7893L127.588 56.8383Z" fill="#FECE3F"/>
<path d="M152.365 96.9595C151.55 96.9595 150.74 96.7268 150.038 96.2624L125.262 79.8373C124.132 79.089 123.459 77.8492 123.459 76.5232V56.8381C123.459 55.496 124.149 54.2442 125.298 53.5L150.074 37.451C151.461 36.5533 153.268 36.5533 154.656 37.451L179.432 53.5C180.581 54.2442 181.27 55.496 181.27 56.8381V76.5232C181.27 77.8492 180.597 79.09 179.468 79.8383L154.692 96.2633C153.99 96.7268 153.179 96.9595 152.365 96.9595ZM131.718 74.4027L152.365 88.0904L173.012 74.4027V58.9847L152.365 45.6099L131.718 58.9847V74.4027Z" fill="#FDB720"/>
<path d="M152.365 20.7281V40.4121L177.141 56.8381L201.917 40.4121V20.7281L177.141 4.6792L152.365 20.7281Z" fill="#FFCE56"/>
<path d="M177.141 60.8494C176.326 60.8494 175.516 60.6167 174.814 60.1522L150.038 43.7272C148.908 42.9789 148.235 41.7391 148.235 40.4131V20.7271C148.235 19.385 148.925 18.1332 150.074 17.389L174.85 1.34005C176.238 0.442314 178.044 0.442314 179.432 1.34005L204.208 17.389C205.357 18.1332 206.047 19.385 206.047 20.7271V40.4121C206.047 41.7381 205.374 42.9789 204.244 43.7272L179.468 60.1522C178.766 60.6167 177.955 60.8494 177.141 60.8494ZM156.494 38.2926L177.141 51.9804L197.788 38.2926V22.8747L177.141 9.49992L156.494 22.8747V38.2926Z" fill="#FDB720"/>
<path d="M78.0359 129.058V148.742L102.812 165.168L127.588 148.742V129.058L102.812 113.009L78.0359 129.058Z" fill="#FFCE56"/>
<path d="M102.812 169.18C101.998 169.18 101.187 168.947 100.485 168.483L75.709 152.057C74.5796 151.309 73.9065 150.069 73.9065 148.743V129.058C73.9065 127.716 74.5961 126.464 75.7451 125.72L100.521 109.671C101.909 108.773 103.715 108.773 105.103 109.671L129.879 125.72C131.028 126.464 131.718 127.716 131.718 129.058V148.743C131.718 150.069 131.045 151.31 129.915 152.058L105.139 168.484C104.437 168.947 103.627 169.18 102.812 169.18ZM82.1653 146.623L102.812 160.311L123.459 146.623V131.205L102.812 117.83L82.1653 131.205V146.623Z" fill="#FDB720"/>
<path d="M127.588 129.058V148.742L152.365 165.168L177.141 148.742V129.058L152.365 113.009L127.588 129.058Z" fill="#FECE3F"/>
<path d="M152.365 169.18C151.55 169.18 150.74 168.947 150.038 168.483L125.262 152.057C124.132 151.309 123.459 150.069 123.459 148.743V129.058C123.459 127.716 124.149 126.464 125.298 125.72L150.074 109.671C151.461 108.773 153.268 108.773 154.656 109.671L179.432 125.72C180.581 126.464 181.27 127.716 181.27 129.058V148.743C181.27 150.069 180.597 151.31 179.468 152.058L154.692 168.484C153.99 168.947 153.179 169.18 152.365 169.18ZM131.718 146.623L152.365 160.311L173.012 146.623V131.205L152.365 117.83L131.718 131.205V146.623Z" fill="#FDB720"/>
<path d="M152.365 92.9482V112.632L177.141 129.058L201.917 112.632V92.9482L177.141 76.8993L152.365 92.9482Z" fill="#FFCE56"/>
<path d="M177.141 133.07C176.326 133.07 175.516 132.837 174.814 132.373L150.038 115.947C148.908 115.199 148.235 113.959 148.235 112.632V92.9473C148.235 91.6052 148.925 90.3534 150.074 89.6091L174.85 73.5601C176.238 72.6624 178.044 72.6624 179.432 73.5601L204.208 89.6091C205.357 90.3534 206.047 91.6052 206.047 92.9473V112.632C206.047 113.958 205.374 115.199 204.244 115.947L179.468 132.373C178.766 132.837 177.956 133.07 177.141 133.07ZM156.494 110.513L177.141 124.201L197.788 110.513V95.0949L177.141 81.72L156.494 95.0949V110.513Z" fill="#FDB720"/>
<path d="M152.365 165.169V184.853L177.141 201.279L201.917 184.853V165.169L177.141 149.12L152.365 165.169Z" fill="#FFCE56"/>
<path d="M177.141 205.29C176.326 205.29 175.516 205.057 174.814 204.593L150.038 188.168C148.908 187.419 148.235 186.18 148.235 184.853V165.168C148.235 163.825 148.925 162.574 150.074 161.829L174.85 145.78C176.238 144.883 178.044 144.883 179.432 145.78L204.208 161.829C205.357 162.574 206.047 163.825 206.047 165.168V184.853C206.047 186.179 205.374 187.419 204.244 188.168L179.468 204.593C178.766 205.057 177.956 205.29 177.141 205.29ZM156.494 182.733L177.141 196.421L197.788 182.733V167.315L177.141 153.94L156.494 167.315V182.733Z" fill="#FDB720"/>
<path d="M119.33 30.6333C121.61 30.6333 123.459 28.837 123.459 26.6211C123.459 24.4052 121.61 22.6089 119.33 22.6089C117.049 22.6089 115.2 24.4052 115.2 26.6211C115.2 28.837 117.049 30.6333 119.33 30.6333Z" fill="white"/>
<path d="M144.106 138.964C146.387 138.964 148.235 137.167 148.235 134.951C148.235 132.736 146.387 130.939 144.106 130.939C141.825 130.939 139.977 132.736 139.977 134.951C139.977 137.167 141.825 138.964 144.106 138.964Z" fill="white"/>
</svg>
